<svg xmlns="http://www.w3.org/2000/svg" width="24" height="24" fill="none"><g clip-path="url(#a)"><path fill="#1F2937" d="M14.391 5.44q.555 0 1.02.215c.921.464 1.466 1.345 1.473 2.328v6.772c-.173 1.076-1.405.783-1.435 0V8.36c-.11-.365-.814-.214-.831 0v14.675c-.18 1.499-2.116 1.06-2.165-.025v-8.986c-.124-.58-.939-.317-.957.025.035 2.987.026 5.974.026 8.961-.193 1.491-2.12 1.11-2.165.025L9.332 8.361c-.113-.357-.766-.22-.78 0v6.394c-.174 1.076-1.406.783-1.436 0V7.983C7.134 7.042 7.48 6.1 8.3 5.655q.402-.214.981-.214zm-.025-3.074a2.366 2.366 0 1 1-4.731 0 2.366 2.366 0 0 1 4.731 0"/><g clip-path="url(#b)"><path fill="#1F2937" stroke="#fff" stroke-width=".2" d="M6.007 16.937a2.35 2.35 0 0 1-.204 1.4h.047c.57 0 1.117-.227 1.52-.63l.172-.172a.66.66 0 0 1 .97.035l1.013 1.17a.464.464 0 0 0 .677.024l.562-.563a.464.464 0 0 0-.022-.675L9.57 16.512a.663.663 0 0 1-.035-.969l.172-.172a2.16 2.16 0 0 0 .63-1.522v-.047c0-.339-.08-.669-.23-.966zm-2.319-1.212a1.588 1.588 0 1 0 0 3.176 1.588 1.588 0 0 0 0-3.176Zm4.963-4.501a3.837 3.837 0 0 0-6.274 4.138 2.35 2.35 0 0 1 3.349.778l3.922-3.921z"/></g></g><defs><clipPath id="a"><path fill="#fff" d="M0 0h24v24H0z"/></clipPath><clipPath id="b"><path fill="#fff" d="M11 10H2v9h9z"/></clipPath></defs></svg>